<svg width="32" height="32" viewBox="0 0 56.45161290322581 64.05181554749637">
    <g transform="translate(-6.682687510780625, -3.558393776146886) scale(0.7116787552293772)" fill="#000000">
        <g>
            <path
                d="M80.43,24.25c-3.93-3.04-7.65-5.91-9.37-6.66c-3.95-1.71-10.3-3.43-11.41-3.65l-0.94-0.18c-3.1-0.62-12.52-2.48-13.89-2.82   c-1.65-0.42-7.92-0.79-8.68-0.84c-0.41-0.02-2.46-0.6-4.45-1.17c-2.99-0.85-7.1-2.01-10.82-2.82C17.73,5.42,14.45,5,12.31,5   c-1.51,0-2.2,0.2-2.56,0.73c-1.44,2.15,1.86,5.64,2.54,6.31c0.9,0.9,3.15,2.84,4.96,4.39c0.68,0.58,1.28,1.1,1.72,1.49   c1.12,0.97,3.55,4.78,4.72,6.69c-0.75,1.37-2.77,5-3.35,6.16c-0.04,0.08-4.16,8.51-4.52,11.17c-0.21,1.57,0.18,4.64,1.19,9.38   l0.03,0.12c0.42,1.98,0.89,5.04,0.82,5.53c-0.15,0.47-1.85,3.86-3.41,6.9c-0.31,0.44-1.7,2.61-0.88,4.72   c0.9,2.31,2.26,3.34,3.24,3.8c0.51,0.24,1.87,1.11,3.18,1.96c2.17,1.4,4.41,2.84,5.52,3.24c0.28,0.1,0.59,0.17,0.9,0.23l3.71,15.38   c0.04,0.15,0.18,0.24,0.33,0.22c0.15-0.03,0.26-0.18,0.23-0.33l-2.49-15.13c0.94-0.02,1.96-0.16,3.01-0.4l8.56,17.23   c0.08,0.18,0.3,0.26,0.48,0.18c0.19-0.08,0.28-0.31,0.2-0.5l-7.56-17.4c0.97-0.32,1.92-0.73,2.84-1.22l10.83,12.04   c0.18,0.19,0.48,0.22,0.68,0.05c0.22-0.17,0.25-0.49,0.08-0.7L37.28,74.91c1.25-0.85,2.35-1.85,3.17-2.99   c0.87,0.11,2.54,0.26,4.55,0.26c4.47,0,10.39-0.79,13.25-4.55c3.201-4.217,4.095-9.365,4.342-12.194   c0.048-0.549-0.34-1.038-0.887-1.108h0c-0.575-0.074-1.094,0.339-1.145,0.916c-0.226,2.584-1.04,7.351-3.931,11.156   c-2.35,3.1-7.62,3.75-11.63,3.75c-2.75,0-4.88-0.32-4.9-0.32c-0.4-0.07-0.81,0.12-1.02,0.47c-0.7,1.16-1.8,2.18-3.08,3.03   l-1.71-2.1c-0.01-0.02-0.02-0.03-0.03-0.04c-0.38-0.42-1.02-0.46-1.44-0.08s-0.45,1.02-0.08,1.44l1.57,1.74   c-0.73,0.36-1.48,0.67-2.24,0.91l-1.62-3.74c-0.01-0.02-0.02-0.03-0.03-0.05c-0.25-0.5-0.86-0.71-1.36-0.46s-0.71,0.86-0.46,1.37   l1.67,3.36c-0.81,0.16-1.59,0.25-2.32,0.25h-0.1l-0.42-2.59c-0.01-0.02-0.01-0.05-0.02-0.07c-0.13-0.55-0.68-0.88-1.23-0.75   c-0.54,0.13-0.88,0.68-0.75,1.23l0.43,1.78c-1.06-0.5-3.09-1.81-4.76-2.89c-0.35-0.22-0.68-0.44-1-0.64l2.64-4.16   c0.1-0.17,0.08-0.39-0.07-0.54c-0.17-0.17-0.45-0.17-0.62,0l-3.6,3.67c-0.31-0.18-0.58-0.33-0.78-0.42   c-0.94-0.44-1.68-1.35-2.2-2.7c-0.41-1.04,0.34-2.41,0.67-2.84c0.03-0.05,0.06-0.1,0.09-0.15c1.01-1.96,3.38-6.6,3.59-7.32   c0.34-1.19-0.78-6.47-0.79-6.52L19,50.89c-1.18-5.53-1.28-7.77-1.16-8.67c0.25-1.83,3.19-8.28,4.32-10.54   c0.69-1.37,3.57-6.54,3.6-6.59c0.18-0.32,0.17-0.71-0.02-1.02c-0.37-0.63-3.75-6.21-5.43-7.68c-0.44-0.39-1.05-0.92-1.73-1.5   c-1.78-1.53-4-3.44-4.85-4.29c-1.39-1.38-2.24-2.9-2.31-3.52c0.18-0.02,0.46-0.04,0.89-0.04c1.57,0,4.54,0.27,8.12,1.06   c3.67,0.79,7.74,1.95,10.71,2.79c3.31,0.94,4.43,1.25,4.93,1.25c0.93,0.06,2.69,0.17,4.36,0.31c1.68,0.14,3.27,0.31,3.9,0.46   c1.42,0.36,10.88,2.23,13.99,2.84l0.93,0.19c1.03,0.2,7.25,1.89,11,3.52c1.49,0.65,5.27,3.57,8.93,6.4   c3.759,2.906,6.276,4.821,7.98,5.901c0.409,0.259,0.939,0.186,1.272-0.165v0c0.435-0.459,0.353-1.2-0.178-1.543   C86.304,28.794,83.012,26.248,80.43,24.25z">
            </path>
            <path
                d="M58.92,30.07c-1.05-0.95-2.67-1.42-4.82-1.42c-5.37,0-12.62,2.92-12.92,3.04c-0.45,0.18-0.71,0.65-0.62,1.12   c0.08,0.47,0.48,0.82,0.96,0.84c4.29,0.15,11.77,1.03,13.62,2.74c2.07,1.93,3.08,7.88,3.3,10.02c0.05,0.49,0.45,0.88,0.95,0.91   h0.06c0.48,0,0.89-0.33,1-0.8C60.73,45.23,63.07,33.77,58.92,30.07z M59.25,40.06c-0.6-2-1.48-4-2.73-5.16   c-1.78-1.66-6.31-2.49-9.93-2.9c2.34-0.68,5.16-1.32,7.51-1.32c1.63,0,2.8,0.3,3.47,0.9C59.19,33.03,59.45,36.66,59.25,40.06z">
            </path>
            <path
                d="M28.58,58.687c-0.615,0.207-0.829,0.969-0.413,1.467c0.466,0.558,0.997,1.254,1.386,1.776   c0.316,0.423,0.915,0.496,1.325,0.164c1.251-1.014,3.502-3.044,2.578-3.865C32.628,57.493,30.162,58.153,28.58,58.687z">
            </path>
        </g>
    </g>
</svg>