<svg id="visual" viewBox="0 0 900 600" width="900" height="600" xmlns="http://www.w3.org/2000/svg" xmlns:xlink="http://www.w3.org/1999/xlink" version="1.1"><rect x="0" y="0" width="900" height="600" fill="#887a5d"></rect><path d="M0 565L21.5 562.5C43 560 86 555 128.8 553.5C171.7 552 214.3 554 257.2 558.2C300 562.3 343 568.7 385.8 573.7C428.7 578.7 471.3 582.3 514.2 582.8C557 583.3 600 580.7 642.8 574.3C685.7 568 728.3 558 771.2 555.7C814 553.3 857 558.7 878.5 561.3L900 564L900 601L878.5 601C857 601 814 601 771.2 601C728.3 601 685.7 601 642.8 601C600 601 557 601 514.2 601C471.3 601 428.7 601 385.8 601C343 601 300 601 257.2 601C214.3 601 171.7 601 128.8 601C86 601 43 601 21.5 601L0 601Z" fill="#fcf7de" stroke-linecap="round" stroke-linejoin="miter"></path></svg>