<svg id="visual" viewBox="0 0 900 600" width="900" height="600" xmlns="http://www.w3.org/2000/svg" xmlns:xlink="http://www.w3.org/1999/xlink" version="1.1"><rect x="0" y="0" width="900" height="600" fill="#002233"></rect><path d="M0 392L21.5 410.2C43 428.3 86 464.7 128.8 470C171.7 475.3 214.3 449.7 257.2 431.8C300 414 343 404 385.8 406.5C428.7 409 471.3 424 514.2 430.5C557 437 600 435 642.8 435.5C685.7 436 728.3 439 771.2 438.7C814 438.3 857 434.7 878.5 432.8L900 431L900 601L878.5 601C857 601 814 601 771.2 601C728.3 601 685.7 601 642.8 601C600 601 557 601 514.2 601C471.3 601 428.7 601 385.8 601C343 601 300 601 257.2 601C214.3 601 171.7 601 128.8 601C86 601 43 601 21.5 601L0 601Z" fill="#0066FF" stroke-linecap="round" stroke-linejoin="miter"></path></svg>