<svg id="visual" viewBox="0 0 900 600" width="900" height="600" xmlns="http://www.w3.org/2000/svg" xmlns:xlink="http://www.w3.org/1999/xlink" version="1.1"><rect x="0" y="0" width="900" height="600" fill="#887a5d"></rect><path d="M0 578L16.7 579C33.3 580 66.7 582 100 579.3C133.3 576.7 166.7 569.3 200 569.7C233.3 570 266.7 578 300 581.2C333.3 584.3 366.7 582.7 400 579.5C433.3 576.3 466.7 571.7 500 572.2C533.3 572.7 566.7 578.3 600 578.7C633.3 579 666.7 574 700 569.7C733.3 565.3 766.7 561.7 800 562.3C833.3 563 866.7 568 883.3 570.5L900 573L900 601L883.3 601C866.7 601 833.3 601 800 601C766.7 601 733.3 601 700 601C666.7 601 633.3 601 600 601C566.7 601 533.3 601 500 601C466.7 601 433.3 601 400 601C366.7 601 333.3 601 300 601C266.7 601 233.3 601 200 601C166.7 601 133.3 601 100 601C66.7 601 33.3 601 16.7 601L0 601Z" fill="#fcf7de" stroke-linecap="round" stroke-linejoin="miter"></path></svg>